<svg version="1.1" id="Layer_1" xmlns="http://www.w3.org/2000/svg" xmlns:xlink="http://www.w3.org/1999/xlink" x="0px" y="0px"
	 width="100%" viewBox="0 0 1024 1024" enable-background="new 0 0 1024 1024" xml:space="preserve">

<path fill="#0159B8" opacity="1.000000" stroke="none" 
	d="
M410.998047,550.942871 
	C408.931183,550.909119 406.864319,550.875366 404.286377,550.612183 
	C403.508453,550.227966 403.275055,550.277527 403.075134,550.531433 
	C358.726501,547.670471 321.904907,530.220764 296.640808,492.860352 
	C277.683777,464.826721 273.622925,433.193878 280.716461,400.496124 
	C283.400726,388.122925 289.024597,376.387390 293.991089,364.169739 
	C299.137268,365.521942 302.822845,364.783356 305.134766,360.293701 
	C307.907562,354.909027 312.791534,352.122864 318.322021,351.596466 
	C323.109772,351.140747 329.033325,347.535797 332.781952,353.475494 
	C335.753326,358.183624 337.982605,363.391510 340.218506,368.518311 
	C341.232910,370.844421 341.465302,373.511597 342.052429,376.024048 
	C338.048523,386.695587 332.520325,397.061798 330.310791,408.092804 
	C321.808929,450.537872 343.008453,486.557922 384.254303,501.686920 
	C385.656158,502.201111 387.084869,502.642212 388.764069,503.773499 
	C388.261566,507.907898 387.319336,511.361450 386.826141,514.877991 
	C386.652924,516.113220 387.581421,517.503052 388.006866,518.822266 
	C389.002258,518.088196 390.010040,517.370300 390.989746,516.615906 
	C392.097412,515.762939 393.103119,514.262024 394.286804,514.114380 
	C398.922668,513.536316 400.618805,515.895020 399.954010,521.293152 
	C399.271637,526.833923 398.618134,532.380127 398.101868,537.937927 
	C398.004517,538.986084 398.253479,540.555237 398.953796,541.103882 
	C401.965637,543.463623 405.265015,545.452820 408.329803,547.750122 
	C409.410065,548.559875 410.119385,549.864319 410.998047,550.942871 
z"/>
<path fill="#036AC3" opacity="1.000000" stroke="none" 
	d="
M533.333496,480.587708 
	C554.693298,494.686523 556.826782,520.979736 545.976990,537.479309 
	C536.557922,551.803223 519.045166,558.772949 501.925537,554.830444 
	C486.449310,551.266418 472.730011,536.603516 471.022125,521.801453 
	C468.818451,502.702698 476.856171,486.454926 493.236450,478.776123 
	C506.556824,472.531738 520.031128,473.314270 533.333496,480.587708 
z"/>
<path fill="#22B8EC" opacity="1.000000" stroke="none" 
	d="
M701.003113,256.896118 
	C717.322998,249.820618 733.171753,250.939590 746.945190,262.115479 
	C760.173218,272.848755 764.949585,287.564789 760.418457,304.240021 
	C755.760193,321.383392 743.670654,331.097595 726.472046,333.951233 
	C709.419983,336.780579 695.447449,330.947205 685.031128,316.261566 
	C686.648560,313.616302 688.495239,311.798584 689.893494,309.684296 
	C692.053345,306.418427 694.418579,303.140259 695.765259,299.520752 
	C697.623413,294.526520 698.684692,289.226105 699.899963,284.013184 
	C700.076294,283.256866 699.272766,282.225647 698.819641,281.376587 
	C695.856567,275.823151 692.865173,270.284821 689.882996,264.741577 
	C690.660278,263.874207 691.437622,263.006866 692.870483,262.047852 
	C694.307373,261.237457 695.088745,260.518707 695.870117,259.799988 
	C695.870117,259.799988 695.945435,259.888611 696.271973,259.916473 
	C698.066711,258.928253 699.534912,257.912170 701.003113,256.896118 
M729.571411,279.749725 
	C728.249207,279.067108 726.982910,278.230774 725.595886,277.726562 
	C715.852722,274.185059 705.266479,280.296844 702.183044,291.185791 
	C700.513062,297.083313 708.128296,307.350250 715.585388,309.255066 
	C723.241638,311.210815 730.826111,307.989746 734.744141,301.118439 
	C738.744507,294.102783 737.138611,286.693237 729.571411,279.749725 
z"/>
<path fill="#37B1A2" opacity="1.000000" stroke="none" 
	d="
M597.004944,478.833527 
	C602.016418,478.802368 607.027893,478.771210 612.734314,479.110413 
	C620.900940,482.821381 628.395203,486.113495 635.816345,489.562866 
	C636.762268,490.002502 637.269104,491.320374 638.077759,492.133484 
	C641.693787,495.769470 644.808960,500.286835 649.094666,502.794647 
	C658.357971,508.215088 666.550354,514.717651 673.993408,522.372192 
	C676.376587,524.823059 679.289612,526.930420 682.304993,528.555237 
	C687.003967,531.087341 692.130066,532.825623 696.834778,535.348633 
	C703.929993,539.153564 710.800049,543.376343 717.802856,547.356384 
	C720.611816,548.952942 723.863220,549.962830 726.293823,551.984497 
	C729.285217,554.472595 731.949402,555.426147 735.775513,554.050232 
	C738.335815,553.129517 741.287537,553.297241 744.064087,552.977905 
	C747.004395,564.053955 749.944641,575.129944 752.413269,586.613281 
	C745.365540,589.530090 739.855835,586.155518 733.959290,584.085876 
	C722.558105,580.084045 711.828857,572.227173 698.648682,577.101746 
	C692.867920,562.231079 684.030090,549.644043 671.025146,540.182739 
	C669.824158,539.309021 668.528564,538.565369 667.072937,537.099487 
	C665.829468,535.988647 664.789978,535.539673 663.750427,535.090637 
	C663.750427,535.090637 663.343689,535.072205 663.021240,534.774414 
	C662.398621,534.339050 662.098389,534.201477 661.798218,534.063965 
	C661.523193,534.058411 661.278503,533.969421 660.976685,533.236450 
	C660.648560,532.077942 660.582825,531.207397 660.140503,530.923279 
	C654.200195,527.108154 648.002258,523.660156 642.281799,519.546021 
	C635.746521,514.845825 629.021851,510.152802 623.470642,504.403168 
	C615.992981,496.658264 608.799011,488.781281 599.502930,483.106018 
	C598.262939,482.349030 597.818054,480.289734 597.004944,478.833527 
z"/>
<path fill="#12BBD7" opacity="1.000000" stroke="none" 
	d="
M445.230743,673.676270 
	C435.266052,685.202454 422.445679,688.237488 408.278900,684.774475 
	C394.164062,681.324097 385.241150,671.850098 382.175903,657.568054 
	C378.686584,641.310181 386.790009,625.517822 401.775391,618.342651 
	C416.955444,611.074341 435.374634,614.794006 445.851837,627.259583 
	C446.046387,627.491028 446.066162,627.869446 445.814911,628.597412 
	C440.758331,630.254517 435.291840,630.608948 435.561554,637.604858 
	C435.571716,637.868713 435.256012,638.200256 435.014191,638.410583 
	C430.425751,642.402161 431.704346,647.313965 432.926514,652.153198 
	C434.238068,657.346252 435.519318,662.562622 437.232544,667.627136 
	C437.650208,668.861694 439.878998,670.495361 440.975464,670.296265 
	C444.105194,669.727722 444.824463,671.288452 445.230743,673.676270 
z"/>
<path fill="#3DBAA1" opacity="1.000000" stroke="none" 
	d="
M744.036133,552.614563 
	C741.287537,553.297241 738.335815,553.129517 735.775513,554.050232 
	C731.949402,555.426147 729.285217,554.472595 726.293823,551.984497 
	C723.863220,549.962830 720.611816,548.952942 717.802856,547.356384 
	C710.800049,543.376343 703.929993,539.153564 696.834778,535.348633 
	C692.130066,532.825623 687.003967,531.087341 682.304993,528.555237 
	C679.289612,526.930420 676.376587,524.823059 673.993408,522.372192 
	C666.550354,514.717651 658.357971,508.215088 649.094666,502.794647 
	C644.808960,500.286835 641.693787,495.769470 638.077759,492.133484 
	C637.269104,491.320374 636.762268,490.002502 635.816345,489.562866 
	C628.395203,486.113495 620.900940,482.821381 613.192871,479.190613 
	C626.479004,480.280518 640.181885,480.710907 653.486389,483.238647 
	C681.042419,488.474121 704.874634,501.256073 724.127380,521.935791 
	C732.458679,530.884644 739.222656,540.938599 744.036133,552.614563 
z"/>
<path fill="#32B0A1" opacity="1.000000" stroke="none" 
	d="
M347.800781,708.352051 
	C373.565186,708.279846 399.329559,708.207642 425.552704,708.617554 
	C424.215149,715.964783 422.667114,722.907715 420.547607,729.671692 
	C418.697937,735.574646 416.204407,741.275940 413.995331,747.066284 
	C393.077698,747.128235 372.154938,747.471313 351.245300,747.092407 
	C344.356201,746.967651 338.662445,747.862793 334.355774,753.648438 
	C336.726746,747.718628 339.281891,741.975281 342.303070,736.488525 
	C342.696869,735.773376 345.489594,736.341309 347.169403,736.383972 
	C348.564117,736.419373 350.437408,737.173462 351.259247,736.532654 
	C353.716064,734.616760 354.364380,727.002625 352.678802,724.118835 
	C349.826294,719.238647 347.202850,714.296082 347.800781,708.352051 
z"/>
<path fill="#147BA2" opacity="1.000000" stroke="none" 
	d="
M704.165649,703.055725 
	C700.078857,706.412109 695.992126,709.768494 691.216064,712.963074 
	C681.430298,708.385742 672.041077,704.473450 663.327087,699.401001 
	C655.881470,695.066833 652.371826,695.319885 646.916992,701.920776 
	C642.624451,707.115234 637.929565,712.117249 632.755432,716.412109 
	C623.837952,723.814392 616.778687,731.868408 617.891785,744.439697 
	C606.520813,745.376953 595.149841,746.314270 583.437927,746.806152 
	C584.125732,745.102966 585.467896,743.991333 586.133789,742.564148 
	C591.582336,730.886719 595.749756,718.811707 596.952942,705.873718 
	C608.481384,702.240662 620.523987,699.716797 631.399170,694.674744 
	C643.182800,689.211548 653.878235,681.401184 665.506592,674.820068 
	C668.415161,680.474121 672.091492,684.561890 677.527466,687.451111 
	C682.859558,690.285156 687.583862,694.239136 692.774963,697.369995 
	C696.397278,699.554688 700.356750,701.180359 704.165649,703.055725 
z"/>
<path fill="#087DCC" opacity="1.000000" stroke="none" 
	d="
M416.987793,277.187927 
	C427.870911,276.058807 438.731476,274.515106 449.643738,273.921844 
	C459.759857,273.371918 469.931213,273.837708 480.546753,274.323883 
	C481.368011,278.791718 483.869904,279.945953 487.514679,280.036621 
	C493.874329,280.194794 494.671234,281.999664 496.221771,288.313446 
	C497.721588,294.420654 501.004181,300.086273 503.457794,305.965027 
	C504.364288,308.136963 505.139923,310.363525 505.975250,312.565155 
	C494.208679,312.656067 482.439575,312.627350 470.676483,312.880646 
	C463.062988,313.044556 455.458374,313.620972 447.141113,313.691925 
	C442.383026,313.390045 439.410004,311.557526 438.189972,307.731018 
	C437.400574,305.255219 437.171722,302.547577 437.036560,299.926056 
	C436.586609,291.199036 432.970825,287.806427 425.379730,288.214294 
	C422.479858,284.998444 419.972656,282.308807 417.598022,279.506836 
	C417.131714,278.956665 417.177917,277.972137 416.987793,277.187927 
z"/>
<path fill="#025DBA" opacity="1.000000" stroke="none" 
	d="
M378.683746,385.892426 
	C380.775452,383.916534 382.867157,381.940674 385.604919,380.096252 
	C387.173065,382.022339 387.693970,384.274292 389.104675,385.511993 
	C391.666748,387.759857 394.626160,389.658600 397.662689,391.235107 
	C401.287140,393.116760 402.877899,395.745483 403.105774,399.836975 
	C403.318451,403.655121 404.386658,407.425659 405.078278,411.217133 
	C390.473450,423.457642 383.381775,439.078308 384.850281,458.109863 
	C385.354126,464.640015 387.347565,471.055237 388.611450,477.281342 
	C354.804169,460.939758 350.200806,415.108765 377.734131,387.231110 
	C378.491943,387.795410 378.743683,388.446350 379.108185,388.517212 
	C380.368256,388.762115 381.691925,388.978729 382.935150,388.804504 
	C383.252441,388.760040 383.362030,387.233490 383.567017,386.387848 
	C382.428772,386.196930 381.294434,385.975739 380.150482,385.829590 
	C379.672028,385.768494 379.173279,385.866669 378.683746,385.892426 
z"/>
<path fill="#46C8A4" opacity="1.000000" stroke="none" 
	d="
M286.379333,762.210388 
	C273.640717,757.223938 266.619720,747.183411 263.717438,734.513123 
	C260.955231,722.454224 262.790558,710.679504 270.104095,700.257141 
	C280.816498,684.991089 301.345978,680.100159 317.698395,685.405212 
	C318.644775,685.712280 319.568359,686.089722 320.711548,687.080811 
	C320.279053,691.585876 319.897614,695.511719 318.925323,699.285217 
	C317.885834,703.319641 316.289062,707.210510 314.597717,711.015747 
	C304.184418,705.267395 294.485901,707.602112 289.556976,716.814209 
	C285.481415,724.431458 287.784821,732.368530 296.083557,739.888123 
	C294.662231,744.122559 293.499847,748.046082 291.867676,751.763367 
	C290.290039,755.356323 288.228394,758.736694 286.379333,762.210388 
z"/>
<path fill="#3DBAA1" opacity="1.000000" stroke="none" 
	d="
M286.616211,762.511963 
	C288.228394,758.736694 290.290039,755.356323 291.867676,751.763367 
	C293.499847,748.046082 294.662231,744.122559 296.482361,740.019531 
	C306.663116,743.010254 314.399292,740.675232 319.182861,733.034424 
	C323.577576,726.014771 322.100372,718.408569 314.935516,711.164001 
	C316.289062,707.210510 317.885834,703.319641 318.925323,699.285217 
	C319.897614,695.511719 320.279053,691.585876 320.968994,687.336792 
	C329.006195,690.911133 336.193695,695.891724 340.305664,704.086731 
	C341.851257,707.167053 343.626709,708.782776 347.439026,708.283569 
	C347.202850,714.296082 349.826294,719.238647 352.678802,724.118835 
	C354.364380,727.002625 353.716064,734.616760 351.259247,736.532654 
	C350.437408,737.173462 348.564117,736.419373 347.169403,736.383972 
	C345.489594,736.341309 342.696869,735.773376 342.303070,736.488525 
	C339.281891,741.975281 336.726746,747.718628 334.047119,753.804688 
	C331.367310,756.543335 328.969269,759.413635 325.914368,761.078979 
	C313.258392,767.978577 300.183807,769.258484 286.616211,762.511963 
z"/>
<path fill="#139EDB" opacity="1.000000" stroke="none" 
	d="
M603.046753,415.419830 
	C591.611511,415.280853 582.974182,409.782562 575.786621,401.356415 
	C574.710999,400.095459 573.072998,399.314240 571.294922,397.838318 
	C567.596069,393.993713 569.447083,390.764221 571.027039,387.405090 
	C572.202637,384.905548 573.709595,382.277679 573.861755,379.637390 
	C574.230530,373.236237 573.894714,366.794464 573.842773,360.369080 
	C584.077515,346.797150 597.553589,341.634186 614.617065,345.374908 
	C614.638245,347.561127 614.224121,349.159729 613.934753,350.780640 
	C612.606873,358.218903 609.177307,366.084717 610.541138,373.000580 
	C612.304810,381.943878 608.218262,388.972473 605.790710,395.999664 
	C603.489624,402.660980 601.405823,408.538544 603.046753,415.419830 
z"/>
<path fill="#025DBA" opacity="1.000000" stroke="none" 
	d="
M411.458557,551.038391 
	C410.119385,549.864319 409.410065,548.559875 408.329803,547.750122 
	C405.265015,545.452820 401.965637,543.463623 398.953796,541.103882 
	C398.253479,540.555237 398.004517,538.986084 398.101868,537.937927 
	C398.618134,532.380127 399.271637,526.833923 399.954010,521.293152 
	C400.618805,515.895020 398.922668,513.536316 394.286804,514.114380 
	C393.103119,514.262024 392.097412,515.762939 390.989746,516.615906 
	C390.010040,517.370300 389.002258,518.088196 388.006866,518.822266 
	C387.581421,517.503052 386.652924,516.113220 386.826141,514.877991 
	C387.319336,511.361450 388.261566,507.907898 389.053894,503.952148 
	C408.129059,509.115356 427.754120,508.600952 447.900665,508.525391 
	C446.839783,519.788330 448.294403,530.303650 452.566925,540.631592 
	C451.009064,541.915222 449.753357,542.771179 448.586731,543.734924 
	C445.705719,546.114807 442.865479,548.544067 440.008850,550.953491 
	C430.645599,551.013672 421.282318,551.073792 411.458557,551.038391 
z"/>
<path fill="#0573C8" opacity="1.000000" stroke="none" 
	d="
M416.593689,277.173035 
	C417.177917,277.972137 417.131714,278.956665 417.598022,279.506836 
	C419.972656,282.308807 422.479858,284.998444 425.379730,288.214294 
	C432.970825,287.806427 436.586609,291.199036 437.036560,299.926056 
	C437.171722,302.547577 437.400574,305.255219 438.189972,307.731018 
	C439.410004,311.557526 442.383026,313.390045 446.701294,313.629089 
	C428.107605,316.569122 410.051453,321.955383 392.262634,329.749817 
	C390.513153,328.173248 388.499908,327.038696 388.225739,325.577789 
	C386.894745,318.485809 385.744690,311.332428 385.089233,304.149780 
	C384.554535,298.290375 383.243530,296.229248 377.441406,296.083405 
	C373.838409,295.992767 372.684753,294.445862 372.996826,291.183777 
	C387.397736,286.508575 401.798676,281.833344 416.593689,277.173035 
z"/>
<path fill="#14B0CA" opacity="1.000000" stroke="none" 
	d="
M445.551666,673.449097 
	C444.824463,671.288452 444.105194,669.727722 440.975464,670.296265 
	C439.878998,670.495361 437.650208,668.861694 437.232544,667.627136 
	C435.519318,662.562622 434.238068,657.346252 432.926514,652.153198 
	C431.704346,647.313965 430.425751,642.402161 435.014191,638.410583 
	C435.256012,638.200256 435.571716,637.868713 435.561554,637.604858 
	C435.291840,630.608948 440.758331,630.254517 445.862976,628.949158 
	C449.609283,632.065247 453.729675,632.055420 458.005829,632.040405 
	C474.040497,631.984070 490.075836,632.115662 506.555908,632.691223 
	C506.325500,634.172974 505.847595,635.702209 504.943848,636.019775 
	C496.773346,638.891541 492.294739,645.131653 488.628540,652.532104 
	C486.002563,657.832886 485.314636,664.795105 477.933380,666.729797 
	C477.067963,666.956604 476.638641,668.847107 476.007141,669.966431 
	C467.957306,670.039062 459.897522,669.915222 451.864441,670.320618 
	C449.823547,670.423645 447.867584,672.209412 445.551666,673.449097 
z"/>
<path fill="#0E91D3" opacity="1.000000" stroke="none" 
	d="
M573.433411,360.447083 
	C573.894714,366.794464 574.230530,373.236237 573.861755,379.637390 
	C573.709595,382.277679 572.202637,384.905548 571.027039,387.405090 
	C569.447083,390.764221 567.596069,393.993713 570.953186,397.736908 
	C562.998291,398.183258 554.985046,398.258270 546.233643,397.913879 
	C538.553589,397.329132 531.612366,397.120026 524.669617,397.010529 
	C517.415161,396.896149 513.689758,391.444580 516.052612,384.680786 
	C516.719177,382.772614 517.019775,380.373291 516.484192,378.483826 
	C515.355042,374.500244 513.562134,370.704773 512.190796,367.212158 
	C516.586792,362.312256 521.721436,361.588409 527.426880,361.923126 
	C533.382874,362.272614 539.376648,362.069183 545.350891,361.953278 
	C546.909058,361.923035 548.455994,361.318848 550.008118,360.978271 
	C554.692261,360.899017 559.376465,360.819824 564.702393,361.099731 
	C566.241272,361.276093 567.138367,361.093323 568.035522,360.910553 
	C569.698364,360.782074 571.361145,360.653595 573.433411,360.447083 
z"/>
<path fill="#28A2A2" opacity="1.000000" stroke="none" 
	d="
M414.459106,747.143311 
	C416.204407,741.275940 418.697937,735.574646 420.547607,729.671692 
	C422.667114,722.907715 424.215149,715.964783 426.011841,708.718384 
	C442.035583,708.263916 458.058929,708.190613 474.541718,708.582397 
	C474.980194,709.544556 475.150787,710.176636 474.909729,710.518372 
	C470.868713,716.246338 470.561768,722.198730 472.850586,728.791382 
	C474.812256,734.441772 473.319946,739.359680 467.917572,742.853027 
	C466.821106,743.561951 466.614349,745.646790 465.997406,747.097290 
	C448.972565,747.138306 431.947754,747.179382 414.459106,747.143311 
z"/>
<path fill="#21AEE3" opacity="1.000000" stroke="none" 
	d="
M689.581482,264.903473 
	C692.865173,270.284821 695.856567,275.823151 698.819641,281.376587 
	C699.272766,282.225647 700.076294,283.256866 699.899963,284.013184 
	C698.684692,289.226105 697.623413,294.526520 695.765259,299.520752 
	C694.418579,303.140259 692.053345,306.418427 689.893494,309.684296 
	C688.495239,311.798584 686.648560,313.616302 684.948059,315.940430 
	C683.240479,313.497925 680.846497,312.660767 677.574524,312.782532 
	C671.018982,313.026489 664.446350,312.813293 657.359253,312.403534 
	C656.230164,311.673584 655.622681,311.328918 654.976318,310.637787 
	C654.168945,309.235016 653.471680,308.117157 652.620728,307.131958 
	C644.339600,297.543976 644.372009,297.570435 650.250183,286.011047 
	C650.706177,285.114471 650.242737,283.604828 649.897217,282.474762 
	C649.025635,279.624481 647.977173,276.828308 646.999695,274.010437 
	C656.451660,273.936401 665.906555,273.695160 675.354248,273.862488 
	C679.739319,273.940094 683.431824,273.665985 685.525146,268.996399 
	C686.223694,267.438141 687.997620,266.361938 689.581482,264.903473 
z"/>
<path fill="#16A7E0" opacity="1.000000" stroke="none" 
	d="
M603.495789,415.532562 
	C601.405823,408.538544 603.489624,402.660980 605.790710,395.999664 
	C608.218262,388.972473 612.304810,381.943878 610.541138,373.000580 
	C609.177307,366.084717 612.606873,358.218903 613.934753,350.780640 
	C614.224121,349.159729 614.638245,347.561127 614.995361,345.552246 
	C628.391602,347.764313 639.358398,359.085754 641.770630,372.792938 
	C644.450439,388.020691 637.502625,403.236115 624.486389,410.729187 
	C618.115356,414.396820 611.286865,416.074280 603.495789,415.532562 
z"/>
<path fill="#025DBA" opacity="1.000000" stroke="none" 
	d="
M342.329681,375.837341 
	C341.465302,373.511597 341.232910,370.844421 340.218506,368.518311 
	C337.982605,363.391510 335.753326,358.183624 332.781952,353.475494 
	C329.033325,347.535797 323.109772,351.140747 318.322021,351.596466 
	C312.791534,352.122864 307.907562,354.909027 305.134766,360.293701 
	C302.822845,364.783356 299.137268,365.521942 294.265015,363.962799 
	C303.460907,344.974915 317.130402,329.317169 333.320831,315.749878 
	C336.857300,312.786377 340.664795,310.146332 344.670288,307.703003 
	C344.528687,315.900269 348.064514,322.623657 352.377197,328.464050 
	C355.162933,332.236694 356.312805,334.966187 354.869232,339.491119 
	C353.072174,345.124084 352.830383,350.933502 358.366058,355.178650 
	C353.113007,362.002655 347.859955,368.826660 342.329681,375.837341 
z"/>
<path fill="#0C6C9D" opacity="1.000000" stroke="none" 
	d="
M664.704590,576.023987 
	C674.435242,598.032043 670.676392,618.571838 656.417053,636.958923 
	C650.922546,644.043884 642.707764,649.019226 635.385559,654.640137 
	C634.981262,644.294800 634.712280,634.426270 638.380432,624.600342 
	C641.341309,616.669006 642.575378,607.983337 639.817383,599.405640 
	C641.581726,593.210510 643.346069,587.015320 645.623962,580.415222 
	C647.913696,579.780029 649.722229,579.690369 651.459961,579.292053 
	C655.891663,578.276184 660.291809,577.122498 664.704590,576.023987 
z"/>
<path fill="#28A2A2" opacity="1.000000" stroke="none" 
	d="
M698.709412,577.504639 
	C711.828857,572.227173 722.558105,580.084045 733.959290,584.085876 
	C739.855835,586.155518 745.365540,589.530090 752.344971,587.022156 
	C752.460388,597.897827 752.172546,608.771973 751.111084,619.880859 
	C748.395630,620.410400 746.456360,620.723816 744.511414,620.996765 
	C734.748840,622.366638 726.367981,618.338989 718.349548,613.743835 
	C711.569214,609.858276 703.092102,607.029419 703.531982,596.672424 
	C703.540588,596.470032 702.716064,596.232239 702.280273,596.010986 
	C701.110229,589.976501 699.940186,583.942017 698.709412,577.504639 
z"/>
<path fill="#1C8DA3" opacity="1.000000" stroke="none" 
	d="
M512.018066,708.293030 
	C527.706726,708.219910 543.395386,708.146851 559.485474,708.536316 
	C557.952393,715.825378 555.949951,722.633850 554.140198,729.493225 
	C553.773438,730.883484 553.940735,732.499207 554.192261,733.953796 
	C555.500793,741.520813 553.195312,744.445068 545.274536,744.983215 
	C542.470642,745.173767 539.648132,745.145386 536.857849,745.440735 
	C536.190002,745.511536 535.616882,746.477417 535.000244,747.031616 
	C525.304993,747.123474 515.609863,747.215332 505.456421,746.847473 
	C505.938934,745.144470 507.186981,744.026611 507.756531,742.631653 
	C508.945526,739.719666 510.771210,736.589600 510.561493,733.676880 
	C510.003662,725.928772 505.554596,718.119263 511.845703,710.723633 
	C512.269714,710.225220 511.977264,709.117432 512.018066,708.293030 
z"/>
<path fill="#0F71A1" opacity="1.000000" stroke="none" 
	d="
M618.224243,744.448853 
	C616.778687,731.868408 623.837952,723.814392 632.755432,716.412109 
	C637.929565,712.117249 642.624451,707.115234 646.916992,701.920776 
	C652.371826,695.319885 655.881470,695.066833 663.327087,699.401001 
	C672.041077,704.473450 681.430298,708.385742 690.861145,712.944153 
	C686.877258,716.311462 682.830139,720.006836 678.192810,722.677551 
	C659.603394,733.383423 639.862732,741.107971 618.224243,744.448853 
z"/>
<path fill="#036AC3" opacity="1.000000" stroke="none" 
	d="
M358.658478,355.044373 
	C352.830383,350.933502 353.072174,345.124084 354.869232,339.491119 
	C356.312805,334.966187 355.162933,332.236694 352.377197,328.464050 
	C348.064514,322.623657 344.528687,315.900269 344.994263,307.622681 
	C354.097443,301.888733 363.199493,296.580780 372.649170,291.228302 
	C372.684753,294.445862 373.838409,295.992767 377.441406,296.083405 
	C383.243530,296.229248 384.554535,298.290375 385.089233,304.149780 
	C385.744690,311.332428 386.894745,318.485809 388.225739,325.577789 
	C388.499908,327.038696 390.513153,328.173248 391.888000,329.787781 
	C381.017761,338.381561 369.984314,346.645813 358.658478,355.044373 
z"/>
<path fill="#0878C6" opacity="1.000000" stroke="none" 
	d="
M426.953430,362.769531 
	C432.853180,362.091187 438.740082,361.014832 444.655548,360.824280 
	C454.457275,360.508545 464.277374,360.762939 474.510864,361.241211 
	C475.566010,364.565125 476.048096,367.469788 476.875854,370.272339 
	C477.744873,373.214600 479.535248,375.990692 479.878815,378.960236 
	C480.616760,385.338135 480.683441,391.793732 481.024902,398.217499 
	C470.026245,398.279602 459.027557,398.341705 447.366516,398.016724 
	C444.931152,396.770935 442.928406,394.890686 441.424591,395.228851 
	C434.629456,396.756989 434.729187,391.518463 432.874725,387.652161 
	C429.824066,381.291779 430.688782,373.451752 425.104126,368.049011 
	C422.419708,365.452026 425.479156,364.244843 426.953430,362.769531 
z"/>
<path fill="#0D8AD2" opacity="1.000000" stroke="none" 
	d="
M506.435181,312.668274 
	C505.139923,310.363525 504.364288,308.136963 503.457794,305.965027 
	C501.004181,300.086273 497.721588,294.420654 496.221771,288.313446 
	C494.671234,281.999664 493.874329,280.194794 487.514679,280.036621 
	C483.869904,279.945953 481.368011,278.791718 481.009033,274.409241 
	C489.028351,273.959534 497.053925,273.892090 505.630249,274.083923 
	C506.453918,274.234222 506.726776,274.125214 506.999634,274.016205 
	C517.025635,273.963470 527.051697,273.910767 537.546875,274.333313 
	C538.942322,277.411041 540.260620,279.954498 540.663879,282.635590 
	C540.958130,284.591278 540.399963,286.891663 539.551453,288.728729 
	C538.958923,290.011475 537.232910,290.770660 536.708313,291.197723 
	C539.405884,296.616516 541.725220,301.458466 544.221008,306.207672 
	C545.374329,308.402191 546.872314,310.415558 548.214050,312.511047 
	C534.441101,312.597839 520.668091,312.684601 506.435181,312.668274 
z"/>
<path fill="#2090A2" opacity="1.000000" stroke="none" 
	d="
M740.296204,657.080933 
	C736.127808,663.970703 731.959351,670.860413 727.089233,677.890747 
	C724.799927,678.413208 722.904297,678.366028 721.675537,679.247925 
	C714.719238,684.240845 708.897888,680.572327 702.816162,677.309082 
	C698.351135,674.913147 693.562927,673.125977 689.047119,670.816467 
	C684.851501,668.670715 680.825928,666.192505 676.725464,663.860718 
	C682.776184,654.447937 688.826843,645.035095 695.417114,635.368286 
	C704.429077,639.130249 712.817017,643.338989 721.402161,647.097168 
	C727.551208,649.789001 734.229614,651.387634 738.858948,656.795715 
	C739.108521,657.087219 739.806824,656.994690 740.296204,657.080933 
z"/>
<path fill="#269AA2" opacity="1.000000" stroke="none" 
	d="
M740.537842,656.845825 
	C739.806824,656.994690 739.108521,657.087219 738.858948,656.795715 
	C734.229614,651.387634 727.551208,649.789001 721.402161,647.097168 
	C712.817017,643.338989 704.429077,639.130249 695.614380,635.066040 
	C700.112793,622.785095 702.801636,610.161438 702.235840,596.474670 
	C702.716064,596.232239 703.540588,596.470032 703.531982,596.672424 
	C703.092102,607.029419 711.569214,609.858276 718.349548,613.743835 
	C726.367981,618.338989 734.748840,622.366638 744.511414,620.996765 
	C746.456360,620.723816 748.395630,620.410400 750.767334,620.093262 
	C750.836182,630.860046 747.657776,640.940735 743.456909,650.759460 
	C742.613464,652.730835 741.674377,654.661316 740.537842,656.845825 
z"/>
<path fill="#0D8AD2" opacity="1.000000" stroke="none" 
	d="
M481.480896,398.329742 
	C480.683441,391.793732 480.616760,385.338135 479.878815,378.960236 
	C479.535248,375.990692 477.744873,373.214600 476.875854,370.272339 
	C476.048096,367.469788 475.566010,364.565125 474.972412,361.335815 
	C499.757721,360.881409 524.502563,360.796539 549.627808,360.844971 
	C548.455994,361.318848 546.909058,361.923035 545.350891,361.953278 
	C539.376648,362.069183 533.382874,362.272614 527.426880,361.923126 
	C521.721436,361.588409 516.586792,362.312256 512.190796,367.212158 
	C513.562134,370.704773 515.355042,374.500244 516.484192,378.483826 
	C517.019775,380.373291 516.719177,382.772614 516.052612,384.680786 
	C513.689758,391.444580 517.415161,396.896149 524.669617,397.010529 
	C531.612366,397.120026 538.553589,397.329132 545.777100,397.814728 
	C534.966003,398.291595 523.873779,398.525848 512.780640,398.582123 
	C502.499878,398.634308 492.218170,398.496246 481.480896,398.329742 
z"/>
<path fill="#139EDB" opacity="1.000000" stroke="none" 
	d="
M580.006348,274.015076 
	C591.697266,273.957275 603.388184,273.899475 615.541931,274.350891 
	C616.088013,276.343597 615.802368,277.973816 616.323059,279.283386 
	C617.953674,283.384277 619.128540,287.116180 614.216003,289.998352 
	C613.388672,290.483734 612.960632,292.426697 613.083191,293.620758 
	C613.637146,299.018829 615.113708,304.107056 620.223877,307.048645 
	C623.707458,309.053955 627.380066,310.730804 630.968201,312.554535 
	C613.923828,312.596130 596.879517,312.637695 579.422241,312.116760 
	C578.981934,310.562775 579.255798,309.435883 578.880371,308.600983 
	C575.290649,300.619598 576.821533,293.190002 580.964844,285.921021 
	C581.457458,285.056732 581.409851,283.755798 581.287720,282.694641 
	C580.953369,279.790771 580.445496,276.906891 580.006348,274.015076 
z"/>
<path fill="#269AA2" opacity="1.000000" stroke="none" 
	d="
M511.557343,708.194580 
	C511.977264,709.117432 512.269714,710.225220 511.845703,710.723633 
	C505.554596,718.119263 510.003662,725.928772 510.561493,733.676880 
	C510.771210,736.589600 508.945526,739.719666 507.756531,742.631653 
	C507.186981,744.026611 505.938934,745.144470 504.992920,746.763794 
	C492.299103,747.183289 479.610535,747.226868 466.459686,747.183838 
	C466.614349,745.646790 466.821106,743.561951 467.917572,742.853027 
	C473.319946,739.359680 474.812256,734.441772 472.850586,728.791382 
	C470.561768,722.198730 470.868713,716.246338 474.909729,710.518372 
	C475.150787,710.176636 474.980194,709.544556 475.001709,708.676208 
	C487.033722,708.235352 499.065155,708.165771 511.557343,708.194580 
z"/>
<path fill="#0E91D3" opacity="1.000000" stroke="none" 
	d="
M579.573792,273.932190 
	C580.445496,276.906891 580.953369,279.790771 581.287720,282.694641 
	C581.409851,283.755798 581.457458,285.056732 580.964844,285.921021 
	C576.821533,293.190002 575.290649,300.619598 578.880371,308.600983 
	C579.255798,309.435883 578.981934,310.562775 579.005249,312.015015 
	C569.000000,312.542236 558.998840,312.608704 548.605835,312.593079 
	C546.872314,310.415558 545.374329,308.402191 544.221008,306.207672 
	C541.725220,301.458466 539.405884,296.616516 536.708313,291.197723 
	C537.232910,290.770660 538.958923,290.011475 539.551453,288.728729 
	C540.399963,286.891663 540.958130,284.591278 540.663879,282.635590 
	C540.260620,279.954498 538.942322,277.411041 538.009155,274.418732 
	C548.360474,273.959930 558.718750,273.891022 569.722046,274.162170 
	C571.244568,274.336212 572.122009,274.170197 572.999512,274.004150 
	C575.046753,273.952545 577.093994,273.900909 579.573792,273.932190 
z"/>
<path fill="#1783A2" opacity="1.000000" stroke="none" 
	d="
M535.461670,747.120972 
	C535.616882,746.477417 536.190002,745.511536 536.857849,745.440735 
	C539.648132,745.145386 542.470642,745.173767 545.274536,744.983215 
	C553.195312,744.445068 555.500793,741.520813 554.192261,733.953796 
	C553.940735,732.499207 553.773438,730.883484 554.140198,729.493225 
	C555.949951,722.633850 557.952393,715.825378 559.945007,708.633728 
	C565.203857,708.462036 570.420044,708.990784 575.600708,708.751404 
	C580.446533,708.527405 585.254639,707.488708 590.719482,707.126465 
	C592.571045,707.023010 593.782532,706.601685 594.993958,706.180298 
	C595.423035,706.052795 595.852112,705.925293 596.617065,705.835754 
	C595.749756,718.811707 591.582336,730.886719 586.133789,742.564148 
	C585.467896,743.991333 584.125732,745.102966 583.048218,746.707825 
	C567.307312,747.106628 551.615234,747.158447 535.461670,747.120972 
z"/>
<path fill="#11A4C1" opacity="1.000000" stroke="none" 
	d="
M476.469238,670.047424 
	C476.638641,668.847107 477.067963,666.956604 477.933380,666.729797 
	C485.314636,664.795105 486.002563,657.832886 488.628540,652.532104 
	C492.294739,645.131653 496.773346,638.891541 504.943848,636.019775 
	C505.847595,635.702209 506.325500,634.172974 507.020264,632.776001 
	C517.388855,632.266785 527.738159,632.187134 538.545654,632.566895 
	C537.590027,635.056702 536.466736,637.393616 534.708313,639.060425 
	C529.270386,644.214905 523.959595,649.124207 525.775879,657.887573 
	C526.199036,659.929382 524.456848,662.471863 523.552673,664.720337 
	C522.829346,666.519043 521.865845,668.221130 521.008972,669.966125 
	C506.316437,670.020264 491.623901,670.074402 476.469238,670.047424 
z"/>
<path fill="#036AC3" opacity="1.000000" stroke="none" 
	d="
M426.586761,362.664520 
	C425.479156,364.244843 422.419708,365.452026 425.104126,368.049011 
	C430.688782,373.451752 429.824066,381.291779 432.874725,387.652161 
	C434.729187,391.518463 434.629456,396.756989 441.424591,395.228851 
	C442.928406,394.890686 444.931152,396.770935 446.910706,397.936493 
	C438.060425,400.116333 428.876526,401.538116 419.996338,404.038483 
	C414.992371,405.447388 410.489014,408.634094 405.419220,411.118530 
	C404.386658,407.425659 403.318451,403.655121 403.105774,399.836975 
	C402.877899,395.745483 401.287140,393.116760 397.662689,391.235107 
	C394.626160,389.658600 391.666748,387.759857 389.104675,385.511993 
	C387.693970,384.274292 387.173065,382.022339 385.924408,380.009399 
	C397.565796,370.339508 411.228607,364.883392 426.586761,362.664520 
z"/>
<path fill="#1082AA" opacity="1.000000" stroke="none" 
	d="
M591.989075,630.974854 
	C601.086182,627.675293 610.183350,624.375793 619.638550,621.445557 
	C619.490234,625.888428 619.368774,630.056763 618.393921,634.015015 
	C616.609192,641.261719 617.770325,648.349670 619.129456,655.372864 
	C619.539429,657.491028 621.851562,659.241089 623.292358,661.159729 
	C610.229065,667.507507 596.234375,669.559814 581.461060,669.649170 
	C581.689331,666.304138 582.056335,663.314514 583.127136,660.602722 
	C585.341492,654.994690 587.626892,649.372131 590.465515,644.067261 
	C592.576721,640.121887 593.850830,633.386780 591.989075,630.974854 
z"/>
<path fill="#16A7E0" opacity="1.000000" stroke="none" 
	d="
M631.428223,312.659424 
	C627.380066,310.730804 623.707458,309.053955 620.223877,307.048645 
	C615.113708,304.107056 613.637146,299.018829 613.083191,293.620758 
	C612.960632,292.426697 613.388672,290.483734 614.216003,289.998352 
	C619.128540,287.116180 617.953674,283.384277 616.323059,279.283386 
	C615.802368,277.973816 616.088013,276.343597 616.004822,274.433655 
	C626.027466,273.957611 636.050110,273.908020 646.536194,273.934418 
	C647.977173,276.828308 649.025635,279.624481 649.897217,282.474762 
	C650.242737,283.604828 650.706177,285.114471 650.250183,286.011047 
	C644.372009,297.570435 644.339600,297.543976 652.620728,307.131958 
	C653.471680,308.117157 654.168945,309.235016 654.600464,310.643433 
	C652.847839,311.511230 651.432129,312.026886 650.016479,312.542542 
	C643.973694,312.616455 637.930969,312.690369 631.428223,312.659424 
z"/>
<path fill="#1098B9" opacity="1.000000" stroke="none" 
	d="
M521.470581,670.048706 
	C521.865845,668.221130 522.829346,666.519043 523.552673,664.720337 
	C524.456848,662.471863 526.199036,659.929382 525.775879,657.887573 
	C523.959595,649.124207 529.270386,644.214905 534.708313,639.060425 
	C536.466736,637.393616 537.590027,635.056702 539.005493,632.663574 
	C548.415588,632.246521 557.824097,632.192200 567.624878,632.696411 
	C566.488770,637.856995 566.046509,643.330933 563.201172,646.876099 
	C557.620117,653.830017 556.568298,662.378601 553.008118,669.978882 
	C542.649475,670.029663 532.290894,670.080444 521.470581,670.048706 
z"/>
<path fill="#32B0A1" opacity="1.000000" stroke="none" 
	d="
M596.541504,478.752441 
	C597.818054,480.289734 598.262939,482.349030 599.502930,483.106018 
	C608.799011,488.781281 615.992981,496.658264 623.470642,504.403168 
	C629.021851,510.152802 635.746521,514.845825 642.281799,519.546021 
	C648.002258,523.660156 654.200195,527.108154 660.140503,530.923279 
	C660.582825,531.207397 660.648560,532.077942 660.875732,533.066040 
	C650.664185,529.693237 640.490417,525.861816 630.243530,522.237427 
	C628.602966,521.657104 626.634888,522.003235 624.319641,521.473389 
	C618.462280,516.747986 613.343506,512.117310 607.690063,508.272888 
	C598.581299,502.078857 589.270874,496.137756 579.698425,490.701141 
	C577.390686,489.390442 573.722168,490.475708 570.679443,490.459167 
	C568.803162,487.295288 566.926819,484.131409 565.001343,480.274231 
	C564.962769,479.332947 564.973389,479.085022 564.984009,478.837067 
	C575.348694,478.781830 585.713440,478.726562 596.541504,478.752441 
z"/>
<path fill="#1783A2" opacity="1.000000" stroke="none" 
	d="
M676.430542,664.002441 
	C680.825928,666.192505 684.851501,668.670715 689.047119,670.816467 
	C693.562927,673.125977 698.351135,674.913147 702.816162,677.309082 
	C708.897888,680.572327 714.719238,684.240845 721.675537,679.247925 
	C722.904297,678.366028 724.799927,678.413208 726.795532,678.051270 
	C719.751221,686.376953 712.298950,694.682739 704.506226,703.022095 
	C700.356750,701.180359 696.397278,699.554688 692.774963,697.369995 
	C687.583862,694.239136 682.859558,690.285156 677.527466,687.451111 
	C672.091492,684.561890 668.415161,680.474121 665.817505,674.651184 
	C669.158630,670.899170 672.647156,667.521667 676.430542,664.002441 
z"/>
<path fill="#0F8DB1" opacity="1.000000" stroke="none" 
	d="
M553.469238,670.065247 
	C556.568298,662.378601 557.620117,653.830017 563.201172,646.876099 
	C566.046509,643.330933 566.488770,637.856995 568.041199,632.781494 
	C575.750000,631.835632 583.434875,631.363159 591.554382,630.932739 
	C593.850830,633.386780 592.576721,640.121887 590.465515,644.067261 
	C587.626892,649.372131 585.341492,654.994690 583.127136,660.602722 
	C582.056335,663.314514 581.689331,666.304138 581.005737,669.569946 
	C571.982056,670.031860 562.956177,670.091736 553.469238,670.065247 
z"/>
<path fill="#28A2A2" opacity="1.000000" stroke="none" 
	d="
M570.749023,490.826904 
	C573.722168,490.475708 577.390686,489.390442 579.698425,490.701141 
	C589.270874,496.137756 598.581299,502.078857 607.690063,508.272888 
	C613.343506,512.117310 618.462280,516.747986 623.900146,521.340088 
	C607.878784,521.654480 591.778381,521.654480 576.798157,521.654480 
	C574.607178,510.493744 572.712830,500.844208 570.749023,490.826904 
z"/>
<path fill="#0F71A1" opacity="1.000000" stroke="none" 
	d="
M623.651489,661.148804 
	C621.851562,659.241089 619.539429,657.491028 619.129456,655.372864 
	C617.770325,648.349670 616.609192,641.261719 618.393921,634.015015 
	C619.368774,630.056763 619.490234,625.888428 619.991211,621.373291 
	C627.735901,615.123535 634.651001,608.551575 639.536560,599.635925 
	C642.575378,607.983337 641.341309,616.669006 638.380432,624.600342 
	C634.712280,634.426270 634.981262,644.294800 635.067078,654.813232 
	C631.400452,657.247192 627.705505,659.192505 623.651489,661.148804 
z"/>
<path fill="#147BA2" opacity="1.000000" stroke="none" 
	d="
M664.634277,575.692139 
	C660.291809,577.122498 655.891663,578.276184 651.459961,579.292053 
	C649.722229,579.690369 647.913696,579.780029 645.726074,580.015259 
	C645.299988,579.250549 645.285278,578.480896 645.682068,577.247131 
	C645.865112,575.528870 645.636658,574.274719 645.408203,573.020508 
	C644.170410,565.759766 642.932617,558.499084 641.658752,551.026733 
	C651.618408,556.890625 659.359436,564.903992 664.634277,575.692139 
z"/>
<path fill="#0159B8" opacity="1.000000" stroke="none" 
	d="
M440.468933,551.044800 
	C442.865479,548.544067 445.705719,546.114807 448.586731,543.734924 
	C449.753357,542.771179 451.009064,541.915222 452.591736,541.004883 
	C454.944000,544.171570 456.928833,547.343628 459.301880,551.136108 
	C452.728516,551.136108 446.828766,551.136108 440.468933,551.044800 
z"/>
<path fill="#036AC3" opacity="1.000000" stroke="none" 
	d="
M378.474060,385.950195 
	C379.173279,385.866669 379.672028,385.768494 380.150482,385.829590 
	C381.294434,385.975739 382.428772,386.196930 383.567017,386.387848 
	C383.362030,387.233490 383.252441,388.760040 382.935150,388.804504 
	C381.691925,388.978729 380.368256,388.762115 379.108185,388.517212 
	C378.743683,388.446350 378.491943,387.795410 378.043579,387.086121 
	C377.879944,386.442383 378.001831,386.191071 378.474060,385.950195 
z"/>
<path fill="#139EDB" opacity="1.000000" stroke="none" 
	d="
M650.442200,312.640533 
	C651.432129,312.026886 652.847839,311.511230 654.639343,310.989929 
	C655.622681,311.328918 656.230164,311.673584 656.900635,312.294434 
	C654.931702,312.626556 652.899780,312.682556 650.442200,312.640533 
z"/>
<path fill="#21AEE3" opacity="1.000000" stroke="none" 
	d="
M700.662476,256.939575 
	C699.534912,257.912170 698.066711,258.928253 696.214905,259.905304 
	C697.328125,258.905212 698.824951,257.944122 700.662476,256.939575 
z"/>
<path fill="#0C6C9D" opacity="1.000000" stroke="none" 
	d="
M645.330200,573.412720 
	C645.636658,574.274719 645.865112,575.528870 645.801636,576.878662 
	C645.424011,575.917847 645.338135,574.861328 645.330200,573.412720 
z"/>
<path fill="#147BA2" opacity="1.000000" stroke="none" 
	d="
M594.645630,706.147217 
	C593.782532,706.601685 592.571045,707.023010 591.154846,707.166504 
	C592.065857,706.630432 593.181580,706.372253 594.645630,706.147217 
z"/>
<path fill="#0D8AD2" opacity="1.000000" stroke="none" 
	d="
M567.800903,360.782410 
	C567.138367,361.093323 566.241272,361.276093 565.158447,361.196960 
	C565.837341,360.841431 566.701843,360.747864 567.800903,360.782410 
z"/>
<path fill="#21AEE3" opacity="1.000000" stroke="none" 
	d="
M695.544922,259.854248 
	C695.088745,260.518707 694.307373,261.237457 693.141968,261.935150 
	C693.578613,261.245575 694.399170,260.577057 695.544922,259.854248 
z"/>
<path fill="#32B0A1" opacity="1.000000" stroke="none" 
	d="
M663.917603,535.370300 
	C664.789978,535.539673 665.829468,535.988647 666.901001,536.815186 
	C665.983521,536.678467 665.034180,536.164185 663.917603,535.370300 
z"/>
<path fill="#0D8AD2" opacity="1.000000" stroke="none" 
	d="
M572.629517,273.917114 
	C572.122009,274.170197 571.244568,274.336212 570.183289,274.253235 
	C570.752869,273.946167 571.506165,273.888123 572.629517,273.917114 
z"/>
<path fill="#087DCC" opacity="1.000000" stroke="none" 
	d="
M506.749908,273.947754 
	C506.726776,274.125214 506.453918,274.234222 506.090790,274.179291 
	C506.167084,273.970001 506.333649,273.924652 506.749908,273.947754 
z"/>
<path fill="#025DBA" opacity="1.000000" stroke="none" 
	d="
M403.285583,550.628662 
	C403.275055,550.277527 403.508453,550.227966 403.858612,550.490601 
	C403.941895,550.598511 403.496063,550.725952 403.285583,550.628662 
z"/>
<path fill="#32B0A1" opacity="1.000000" stroke="none" 
	d="
M661.911865,534.306824 
	C662.098389,534.201477 662.398621,534.339050 662.837891,534.685913 
	C662.659790,534.780090 662.342651,534.664856 661.911865,534.306824 
z"/>
<path fill="#3DBAA1" opacity="1.000000" stroke="none" 
	d="
M564.693481,478.886841 
	C564.973389,479.085022 564.962769,479.332947 564.904663,479.951294 
	C564.705750,479.859985 564.554382,479.398315 564.693481,478.886841 
z"/>


</svg>
